PathFileType	4	(X/Y/Z)	/tmp/tmphz8i29mk/org-f5e79b5e/32898/baseball-pitching/20220928/session_662820_hawkeye/trc/001_10A17836-7AA3-4221-8461-2F40718F5DA8.trc
DataRate	CameraRate	NumFrames	NumMarkers	Units	OrigDataRate	OrigDataStartFrame	OrigNumFrames
303.03030303030306	303.03030303030306	16	13	mm	303.03030303030306	455	908
Frame#	Time	LSJC			RSJC			LEJC			REJC			LWJC			RWJC			LHJC			RHJC			LKJC			RKJC			LAJC			RAJC			NECK		
		X1	Y1	Z1	X2	Y2	Z2	X3	Y3	Z3	X4	Y4	Z4	X5	Y5	Z5	X6	Y6	Z6	X7	Y7	Z7	X8	Y8	Z8	X9	Y9	Z9	X10	Y10	Z10	X11	Y11	Z11	X12	Y12	Z12	X13	Y13	Z13

455	1.4982	11.978213540949028	337.8603929441611	1695.7882165715741	-180.54302796300507	-20.143251089971596	1650.5343618937868	68.0403285790929	570.2521385002901	1522.863325059239	-304.0607733297121	-154.6438517151507	1411.5335007741423	178.7120037414527	326.5918464321733	1495.0034955519698	-43.25203050619488	-91.8979380038685	1380.42099527524	-38.16468098303448	338.27037256597964	1166.1004853655643	-154.70713349237406	134.33148510230498	1133.9200228522209	296.20930142584893	247.18311274419332	916.0059507499332	28.468371320138072	-79.33909455126867	803.2209370584923	144.8548312361671	308.1612886683893	523.9141155074935	-153.12482807770579	-73.47214548324946	421.23943628416174	-45.185712733955505	140.01629554185052	1678.2150916648468
456	1.5015	13.35665661691955	338.6779843126594	1692.7784898367659	-179.68583983722405	-19.08252740025823	1647.4252666838445	70.0944068603681	571.1863585337837	1520.2977642022609	-308.1070692182432	-153.60703398303863	1410.9577241118866	182.6922894416471	328.92935069851944	1487.7980976828383	-47.06211280371703	-97.13159575220956	1370.36636119758	-38.297940899706624	339.99151851664664	1163.3974435933023	-155.28607893518563	136.31404016011876	1131.1785334219385	296.8611844534716	256.7703196024751	910.6395322917548	29.704482331601973	-77.79896359436718	801.9581165777475	152.08806431286692	317.6235382736618	516.3976643374589	-152.73050725569297	-72.91576951103686	420.69197252288495	-44.086375310767984	140.8927956908239	1675.0261433025244
457	1.5048	14.667480903639516	339.57922625590953	1689.9294303980882	-178.77833444227596	-17.96215637360873	1644.3390342058988	72.04556180969229	572.2367107864372	1517.9744165514185	-312.0362368946828	-152.4846711754916	1410.4645595039292	186.82301314385003	331.6418478206572	1480.797544888441	-51.176025425461894	-102.6778809975293	1360.3810999337682	-38.48632222526956	341.79633784389875	1160.704198044094	-155.88702788536725	138.332075430401	1128.6388050902515	297.37853188713115	266.53573135331345	905.4361498550943	30.83784707011671	-76.06440236415969	800.7063386800908	159.45484251033335	327.3339909096736	509.0726069312944	-152.38390241228194	-72.38517150114313	420.0148934208623	-42.95212534335356	141.84634256708915	1671.92959230216
458	1.5081	16.054885272334126	340.4863405258368	1687.0659397951765	-177.89956057934694	-16.781905833602323	1641.2880559144107	74.19371231095812	573.3259790404546	1515.7205984825948	-315.7623679543188	-151.13884294928548	1409.9265060873397	190.84663650916988	334.3304914919209	1474.1348744735765	-55.72802864206344	-107.2979212951992	1350.2983836221722	-38.86656460871063	343.82896579595274	1158.0581921165365	-156.57139126057191	140.50643668613748	1126.2091561044424	297.5948835566198	276.7081554101281	900.3827138965156	31.618292659091622	-74.25397435831492	799.456531999182	166.91814851294657	337.1020941764811	501.86540917140934	-152.1106765267427	-71.8550068125163	419.20325100296856	-41.78426305972516	142.80736230783276	1668.8352991008073
459	1.5114	17.483474687528183	341.4310407321034	1684.2279260549337	-177.03294959643245	-15.537129580379618	1638.2609151811603	76.44004021134101	574.599365232337	1513.7103391447258	-319.2860780210557	-149.53841611313175	1409.302586266856	194.79102065897007	337.2059823315477	1467.8108658957744	-60.6654199623104	-111.01782820723787	1340.085999775733	-39.41585311135648	346.11711286164905	1155.4634754671708	-157.30136971193062	142.85676312443758	1123.8868906913674	297.50397818353304	287.25468605344605	895.4770042976347	32.05056053780043	-72.3827217570933	798.2036416940107	174.44387858020988	346.97737889615405	494.8139200696101	-151.94820995358864	-71.33091749076605	418.2730708856599	-40.601280510880486	143.80676664503207	1665.7506885500163
460	1.5147	18.926336021348575	342.4412112027005	1681.4459587771828	-176.16298076069535	-14.22322583903787	1635.249350023899	78.70943584374255	576.173010851231	1512.0826131733418	-322.60742282437394	-147.65897283508787	1408.5600383537626	198.68968852782288	340.455787824535	1461.8182556925522	-65.9456633737123	-113.88715638672086	1329.7208416309168	-40.11177029730498	348.67840494018554	1152.9219072211897	-158.03983215304615	145.3930356400219	1121.6669790424899	297.10687638879585	298.1388801628265	890.7156442866352	32.14902118570362	-70.4685623870857	796.9428667542554	182.00407570999485	357.0023115669489	487.9528009315212	-151.92516064171446	-70.8185829476999	417.2416410757167	-39.41729871843796	144.87197389326278	1662.6820024545018
461	1.518	20.364867061919217	343.5406745944198	1678.7416616923374	-175.27487376663484	-12.836023419349264	1632.2482979003462	80.9490206297915	578.1331513166645	1510.9423008525669	-325.7259828832579	-145.48300268759257	1407.6746473738144	202.58196486371443	344.2402283125986	1456.1421315987768	-71.53476452839749	-115.98009339824392	1319.1898303798719	-40.932141594142905	351.5201913405571	1150.4331895030175	-158.7501981886968	148.11552117396124	1119.5420468332525	296.4117595088311	309.32073269336314	886.0944532997081	31.93805578543171	-68.53235444666593	795.6704521784678	189.57600218222032	367.2127943830675	481.31351284306703	-152.06120140047784	-70.32470876643211	416.1279446448654	-38.24191428630864	146.02661874374476	1659.6344764819548
462	1.5213	21.78863669306467	344.74894234417786	1676.1279791744269	-174.35427985682858	-11.372135205829133	1629.2560145407735	83.12683872333989	580.5352974842066	1510.3609307559684	-328.64053674545454	-143.0000297101721	1406.630975119237	206.51271163950435	348.689758353018	1450.7607170270292	-77.40597194084418	-117.39614336300639	1308.4900609453603	-41.855007073215575	354.6395482678856	1147.9949415086116	-159.39633913439738	151.01485038062697	1117.5024618584678	295.433420103457	320.7569871414097	881.6089877802044	31.45215166919041	-66.59785839248983	794.3842414940403	197.14160999547116	377.638796251947	474.9245671002547	-152.3667177123313	-69.85750533196105	414.9527932297401	-37.080058523739375	147.29023153815447	1656.612497072753
463	1.5246	23.195204841823532	346.08095159954956	1673.6093696676728	-173.38698743142197	-9.829357013058475	1626.2742154165462	85.23072853919489	583.403764017617	1510.3768619484363	-331.3485800577904	-140.20692839055067	1405.4224480798555	210.53209659361232	353.9031732942278	1445.645905451827	-83.53853567328036	-118.26130937451146	1297.6284840386356	-42.858505329306354	358.0231967421544	1145.602755540887	-159.9424153170262	154.0720326905761	1115.536388353721	294.1928348912046	332.4013047664535	877.255081835493	30.736143918804405	-64.69169346383721	793.083964239444	204.68728764123074	388.3050130911688	468.8118953501725	-152.84235491474985	-69.42668083241924	413.73878763184337	-35.93190719179124	148.6778760982791	1653.6197382845503
464	1.5279	24.589920349129567	347.5468007290401	1671.1819646339422	-172.358686461505	-8.207095871233227	1623.308232648057	87.26755228618404	586.731844224653	1510.9948325107127	-333.8456767901204	-137.10835204322544	1404.0512030999062	214.6956146468214	359.94649299433127	1440.7634149014084	-89.9168374109311	-118.72944482684177	1286.6213477486772	-43.92071454665059	361.64738650488306	1143.2502448772407	-160.35267178038765	157.25844371464646	1113.6298334992932	292.7167774611447	344.20438477849694	873.0294084975186	29.845529110792157	-62.843277173460606	791.7712462349044	212.20387090169902	399.2315663454718	462.9993743667715	-153.4784383332371	-69.04298540754489	412.5100578862116	-34.79284089140359	150.1997569831702	1650.6592810788939
465	1.5312	25.985695365077312	349.1514851245048	1668.8337235181987	-171.25482386602334	-6.506816134015164	1620.367172857731	89.2628503203826	590.4828025767723	1512.1848940875602	-336.12468319817185	-133.71724049538284	1402.527624530287	219.06452466136506	366.8522745672161	1436.0724064123788	-96.53009956149631	-118.98361989268254	1275.493709442801	-45.019450747035386	365.47774727115586	1140.9290826571737	-160.59119370502322	160.5357858011214	1111.7666853097242	291.0374877291165	356.1140421575277	868.9300480813853	28.846846543559543	-61.08474769096382	790.4493398448226	219.68687069906272	410.4347460777067	457.5095148932106	-154.25429183595335	-68.71735183537959	411.29177604321274	-33.65346517330298	151.86080695951307	1647.7337138422458
466	1.5345	27.40275348796021	350.89462552080585	1666.5446029593309	-170.06057772868903	-4.732483349210379	1617.4640627042284	91.26092462559598	594.5917321236085	1513.8808565122729	-338.1748901860275	-130.055369505324	1400.8695350982427	223.70678247996554	374.61909551848584	1431.5244675998756	-103.37287695123325	-119.23730656778986	1264.279395091041	-46.13202273396268	369.4691096525742	1138.6290309590502	-160.62162249318862	163.85602358425345	1109.9287410838294	289.1924049960135	368.07525723798796	864.9570505654528	27.818110462479062	-59.45086244435989	789.1225809958325	227.13685806812282	421.9278120405182	452.36432315682777	-155.13749920121595	-68.45968672326818	410.10944661899015	-32.49970062744871	153.6602660666061	1644.8452097527243
467	1.5378	28.868347166690725	352.7701721703019	1664.2867468902868	-168.76097460774113	-2.8909780326403016	1614.6159698923775	93.32530068545114	598.9681884375088	1515.9784647121942	-339.98113191382635	-126.15390451430868	1399.101033688723	228.69847883903404	383.2109357337181	1427.0619193579696	-110.44653300355044	-119.7351240758703	1253.0218409100275	-47.23494274525192	373.56529913330473	1136.337959216608	-160.40683309451094	167.1612974631873	1108.0957255636524	287.2239603289905	380.03021708630877	861.1129799511556	26.849265570657373	-57.9788596395229	787.795589546158	234.5599321197708	433.72187155661226	447.5863428315943	-156.0831730409435	-68.27737499635745	408.98799522503646	-31.312954717358075	155.59126423853533	1641.9955736765519
468	1.5411	30.416462502504952	354.76607740864307	1662.0246828235483	-167.34114621498608	-0.9924369569695258	1611.844107581083	95.53952892732927	603.4993522405894	1518.333616475573	-341.5228541804088	-122.05390461257564	1397.2509986325736	234.12583370300223	392.5562752053837	1422.6154403069272	-117.76195267627654	-120.75295223346173	1241.776307748459	-48.30357909514976	377.6988961575456	1134.0418465178982	-159.90851228082903	170.3837861416709	1106.245289129987	285.17941024730686	391.91834594950564	857.4034568652066	26.04268428143591	-56.70830901905648	786.4722415208007	241.96818307511487	445.82691503400775	443.19996245246904	-157.033301575896	-68.1735832508206	407.95071690152014	-30.070372544640744	157.6404365127973	1639.1862560627726
469	1.5444	32.08731968303028	356.8637710051841	1659.7155922829222	-165.78693518497406	0.949466333517145	1609.173760239631	98.00782993030857	608.0533133821691	1520.7609579167145	-342.77359836506486	-117.806944746475	1395.3513717049461	240.08688198168934	402.54572882768133	1418.1011954573971	-125.34332224223353	-122.59564022810352	1230.613797177309	-49.31184204016446	381.7910558706659	1131.7248019020242	-159.08709736728488	173.4457746251341	1104.3530521667312	283.1106956460698	403.67655385443715	853.8374913076923	25.513234590381646	-55.680575876393085	785.154444192283	249.38003214661612	458.2525877975701	439.2324117665727	-157.9164007332137	-68.14534056072011	407.0180016135345	-28.74530570104992	159.78745635670728	1636.418263815482
470	1.5477	33.927252328121305	359.0378297148769	1657.309376945121	-164.08525469985887	2.917529532172074	1606.6344944283148	100.85673270050344	612.4817900091309	1523.033365456129	-343.6996248910379	-113.47527364960617	1393.4351368256166	246.69520412874311	413.0305567837809	1413.4171918532727	-133.23436924994135	-125.59555324742745	1219.62750846185	-50.231602814505635	385.7511210596006	1129.3689906926352	-157.90059627270125	176.25913359774023	1102.3924810919118	281.07423720327876	415.23907779580054	850.4282479849821	25.389229383994838	-54.9389922845076	783.8407963085697	256.8203598201861	471.0101499703525	435.7163480441573	-158.64722126024884	-68.18182396130076	406.2064319214076	-27.307619394053905	162.00491050214006	1633.692137172976
